<svg width="48" height="52" viewBox="0 0 48 52" fill="none" xmlns="http://www.w3.org/2000/svg">
<path d="M42.5007 12.2472C43.3256 12.7163 44.0105 13.3967 44.4851 14.2185C44.9597 15.0402 45.2067 15.9736 45.2008 16.9225V34.4044C45.2008 36.346 44.1375 38.1365 42.4215 39.0797L26.2212 49.3278C25.4181 49.7688 24.5166 50 23.6004 50C22.6841 50 21.7827 49.7688 20.9795 49.3278L4.77925 39.0797C3.93963 38.6208 3.23872 37.9448 2.7498 37.1224C2.26088 36.2999 2.00192 35.3612 2 34.4044V16.9201C2 14.9784 3.06322 13.1904 4.77925 12.2472L20.9795 2.69503C21.8064 2.23911 22.7353 2 23.6796 2C24.6238 2 25.5527 2.23911 26.3796 2.69503L42.5799 12.2472H42.5007Z" stroke="white" stroke-width="4" stroke-linecap="round" stroke-linejoin="round"/>
<path d="M18.8004 18.7999C18.8004 18.1634 19.0533 17.553 19.5034 17.1029C19.9535 16.6528 20.5639 16.3999 21.2005 16.3999H26.0005C26.6371 16.3999 27.2475 16.6528 27.6976 17.1029C28.1477 17.553 28.4006 18.1634 28.4006 18.7999V23.6C28.4006 24.2366 28.1477 24.847 27.6976 25.2971C27.2475 25.7472 26.6371 26.0001 26.0005 26.0001M26.0005 26.0001H21.2005M26.0005 26.0001C26.6371 26.0001 27.2475 26.2529 27.6976 26.703C28.1477 27.1531 28.4006 27.7636 28.4006 28.4001V33.2002C28.4006 33.8367 28.1477 34.4472 27.6976 34.8973C27.2475 35.3474 26.6371 35.6002 26.0005 35.6002H21.2005C20.5639 35.6002 19.9535 35.3474 19.5034 34.8973C19.0533 34.4472 18.8004 33.8367 18.8004 33.2002" stroke="white" stroke-width="4" stroke-linecap="round" stroke-linejoin="round"/>
</svg>
