<svg width="24" height="24" viewBox="0 0 24 24" fill="none" xmlns="http://www.w3.org/2000/svg">
<path d="M9 19.0004C4.7 20.4004 4.7 16.5004 3 16.0004M15 21.0004V17.5004C15 16.5004 15.1 16.1004 14.5 15.5004C17.3 15.2004 20 14.1004 20 9.50044C19.9988 8.3054 19.5325 7.15775 18.7 6.30044C19.0905 5.26241 19.0545 4.11207 18.6 3.10044C18.6 3.10044 17.5 2.80044 15.1 4.40044C13.0672 3.87103 10.9328 3.87103 8.9 4.40044C6.5 2.80044 5.4 3.10044 5.4 3.10044C4.94548 4.11207 4.90953 5.26241 5.3 6.30044C4.46745 7.15775 4.00122 8.3054 4 9.50044C4 14.1004 6.7 15.2004 9.5 15.5004C8.9 16.1004 8.9 16.7004 9 17.5004V21.0004" stroke="#8C44CC" stroke-width="2" stroke-linecap="round" stroke-linejoin="round"/>
</svg>
