<svg width="32" height="32" viewBox="0 0 32 32" fill="none" xmlns="http://www.w3.org/2000/svg">
<g clip-path="url(#clip0_173_623)">
<path d="M12.3472 24.0017C19.7785 24.0017 23.8425 17.8448 23.8425 12.5064C23.8425 12.3316 23.8388 12.1574 23.8308 11.9839C24.6198 11.4134 25.3053 10.702 25.8462 9.8922C25.1225 10.214 24.3435 10.4307 23.5262 10.5285C24.3601 10.0282 25.0007 9.23682 25.3028 8.29343C24.5219 8.7562 23.6579 9.09282 22.7373 9.27435C22.0001 8.48912 20.9502 7.99805 19.7884 7.99805C17.557 7.99805 15.7478 9.80728 15.7478 12.038C15.7478 12.355 15.7835 12.6633 15.8524 12.9593C12.4948 12.7907 9.517 11.1827 7.525 8.73836C7.17793 9.33528 6.97793 10.0288 6.97793 10.7691C6.97793 12.171 7.69116 13.4085 8.77608 14.1322C8.11331 14.1119 7.49054 13.9297 6.94593 13.627C6.94531 13.6436 6.94531 13.6608 6.94531 13.6787C6.94531 15.6356 8.33793 17.2688 10.1865 17.6393C9.84746 17.7316 9.48993 17.7814 9.12131 17.7814C8.861 17.7814 8.60808 17.7556 8.36193 17.7088C8.87639 19.3137 10.3675 20.4817 12.1361 20.515C10.7533 21.5987 9.01116 22.2442 7.11823 22.2442C6.79208 22.2442 6.47085 22.2257 6.15454 22.1882C7.94223 23.3328 10.0653 24.0017 12.3472 24.0017Z" fill="#63A4FF"/>
<path d="M16 32C7.17723 32 0 24.8228 0 16C0 7.17723 7.17723 0 16 0C24.8228 0 32 7.17723 32 16C32 24.8228 24.8228 32 16 32ZM16 1.23077C7.85662 1.23077 1.23077 7.85662 1.23077 16C1.23077 24.1434 7.85662 30.7692 16 30.7692C24.1434 30.7692 30.7692 24.1434 30.7692 16C30.7692 7.85662 24.1434 1.23077 16 1.23077Z" fill="#63A4FF"/>
</g>
<defs>
<clipPath id="clip0_173_623">
<rect width="32" height="32" fill="white"/>
</clipPath>
</defs>
</svg>
