<svg width="48" height="52" viewBox="0 0 48 52" fill="none" xmlns="http://www.w3.org/2000/svg">
<path d="M42.5007 12.2472C43.3256 12.7163 44.0105 13.3967 44.4851 14.2185C44.9597 15.0402 45.2067 15.9736 45.2008 16.9225V34.4044C45.2008 36.346 44.1375 38.1365 42.4215 39.0797L26.2212 49.3278C25.4181 49.7688 24.5166 50 23.6004 50C22.6841 50 21.7827 49.7688 20.9795 49.3278L4.77925 39.0797C3.93963 38.6208 3.23872 37.9448 2.7498 37.1224C2.26088 36.2999 2.00192 35.3612 2 34.4044V16.9201C2 14.9784 3.06322 13.1904 4.77925 12.2472L20.9795 2.69503C21.8064 2.23911 22.7353 2 23.6796 2C24.6238 2 25.5527 2.23911 26.3796 2.69503L42.5799 12.2472H42.5007Z" stroke="white" stroke-width="4" stroke-linecap="round" stroke-linejoin="round"/>
<path d="M18.8003 16.3989V23.5991C18.8003 24.2356 19.0532 24.846 19.5032 25.2961C19.9533 25.7462 20.5638 25.9991 21.2003 25.9991H28.4005" stroke="white" stroke-width="4" stroke-linecap="round" stroke-linejoin="round"/>
<path d="M28.4004 16.3989V35.5993" stroke="white" stroke-width="4" stroke-linecap="round" stroke-linejoin="round"/>
</svg>
