<svg width="40" height="40" viewBox="0 0 40 40" fill="none" xmlns="http://www.w3.org/2000/svg">
<circle cx="20" cy="20" r="20" fill="#C4C4C4"/>
<circle cx="20" cy="20" r="20" fill="#FAFAFA"/>
<path fill-rule="evenodd" clip-rule="evenodd" d="M0 20H19.9998V0C8.95423 8.14333e-05 1.5462e-05 8.95434 0 20Z" fill="#0052B4"/>
<path fill-rule="evenodd" clip-rule="evenodd" d="M4.16901 7.77658L6.20359 9.25479L5.42642 11.6467L7.46106 10.1684L9.49571 11.6467L8.71854 9.25479L10.7532 7.77654H8.23823L7.46106 5.38467L6.6839 7.77654H4.16904C4.16903 7.77655 4.16902 7.77657 4.16901 7.77658ZM12.821 1.32723L14.2036 2.33171L13.4264 4.72358L15.4611 3.24533L17.4957 4.72358L16.7185 2.33171L18.7532 0.853461H16.2382L16.0854 0.383057C15.629 0.473627 15.1782 0.579728 14.7335 0.700786L14.6839 0.853461H14.202C13.7342 0.994937 13.2737 1.15309 12.821 1.32723ZM16.2382 7.77654L15.4611 5.38467L14.6839 7.77654H12.1689L14.2036 9.25479L13.4264 11.6467L15.4611 10.1684L17.4957 11.6467L16.7185 9.25479L18.7532 7.77654H16.2382ZM16.2382 14.6996L15.4611 12.3078L14.6839 14.6996H12.1689L14.2036 16.1779L13.4264 18.5697L15.4611 17.0915L17.4957 18.5697L16.7185 16.1779L18.7532 14.6996H16.2382ZM7.46106 12.3078L8.23823 14.6996H10.7532L8.71854 16.1779L9.49571 18.5697L7.46106 17.0915L5.42642 18.5697L6.20359 16.1779L4.16895 14.6996H6.6839L7.46106 12.3078Z" fill="#FAFAFA"/>
<path fill-rule="evenodd" clip-rule="evenodd" d="M33.6521 34.6155C30.0779 37.9556 25.2775 40.0001 19.9995 40.0001C14.7216 40.0001 9.92116 37.9556 6.34695 34.6155H33.6521ZM37.234 30.1539H2.76511C1.73492 28.4091 0.962146 26.4943 0.499023 24.4616H39.5001C39.0369 26.4943 38.2642 28.4091 37.234 30.1539ZM39.1779 14.3078C39.7125 16.1119 39.9995 18.0225 39.9995 20.0001L19.9998 20.0001V14.3078H39.1779ZM37.234 9.84624H19.9998V4.15393H32.2036C34.2209 5.70985 35.9328 7.64239 37.234 9.84624Z" fill="#D80027"/>
</svg>
