<svg width="27" height="27" viewBox="0 0 27 27" fill="none" xmlns="http://www.w3.org/2000/svg">
<path d="M10.833 14.8337C10.833 15.5409 11.114 16.2192 11.6141 16.7193C12.1142 17.2194 12.7924 17.5003 13.4997 17.5003C14.2069 17.5003 14.8852 17.2194 15.3853 16.7193C15.8854 16.2192 16.1663 15.5409 16.1663 14.8337C16.1663 14.1264 15.8854 13.4481 15.3853 12.948C14.8852 12.4479 14.2069 12.167 13.4997 12.167C12.7924 12.167 12.1142 12.4479 11.6141 12.948C11.114 13.4481 10.833 14.1264 10.833 14.8337Z" stroke="#8C44CC" stroke-width="2" stroke-linecap="round" stroke-linejoin="round"/>
<path d="M8.16699 25.5V24.1667C8.16699 23.4594 8.44794 22.7811 8.94804 22.281C9.44814 21.781 10.1264 21.5 10.8337 21.5H16.167C16.8742 21.5 17.5525 21.781 18.0526 22.281C18.5527 22.7811 18.8337 23.4594 18.8337 24.1667V25.5" stroke="#8C44CC" stroke-width="2" stroke-linecap="round" stroke-linejoin="round"/>
<path d="M17.5 4.16667C17.5 4.87391 17.781 5.55219 18.281 6.05229C18.7811 6.55238 19.4594 6.83333 20.1667 6.83333C20.8739 6.83333 21.5522 6.55238 22.0523 6.05229C22.5524 5.55219 22.8333 4.87391 22.8333 4.16667C22.8333 3.45942 22.5524 2.78115 22.0523 2.28105C21.5522 1.78095 20.8739 1.5 20.1667 1.5C19.4594 1.5 18.7811 1.78095 18.281 2.28105C17.781 2.78115 17.5 3.45942 17.5 4.16667Z" stroke="#8C44CC" stroke-width="2" stroke-linecap="round" stroke-linejoin="round"/>
<path d="M20.167 10.833H22.8337C23.5409 10.833 24.2192 11.114 24.7193 11.6141C25.2194 12.1142 25.5003 12.7924 25.5003 13.4997V14.833" stroke="#8C44CC" stroke-width="2" stroke-linecap="round" stroke-linejoin="round"/>
<path d="M4.16699 4.16667C4.16699 4.87391 4.44794 5.55219 4.94804 6.05229C5.44814 6.55238 6.12641 6.83333 6.83366 6.83333C7.5409 6.83333 8.21918 6.55238 8.71928 6.05229C9.21937 5.55219 9.50033 4.87391 9.50033 4.16667C9.50033 3.45942 9.21937 2.78115 8.71928 2.28105C8.21918 1.78095 7.5409 1.5 6.83366 1.5C6.12641 1.5 5.44814 1.78095 4.94804 2.28105C4.44794 2.78115 4.16699 3.45942 4.16699 4.16667Z" stroke="#8C44CC" stroke-width="2" stroke-linecap="round" stroke-linejoin="round"/>
<path d="M1.5 14.833V13.4997C1.5 12.7924 1.78095 12.1142 2.28105 11.6141C2.78115 11.114 3.45942 10.833 4.16667 10.833H6.83333" stroke="#8C44CC" stroke-width="2" stroke-linecap="round" stroke-linejoin="round"/>
</svg>
