<svg width="25" height="24" viewBox="0 0 25 24" fill="none" xmlns="http://www.w3.org/2000/svg">
<path d="M7.5 7H6.5C5.96957 7 5.46086 7.21071 5.08579 7.58579C4.71071 7.96086 4.5 8.46957 4.5 9V18C4.5 18.5304 4.71071 19.0391 5.08579 19.4142C5.46086 19.7893 5.96957 20 6.5 20H15.5C16.0304 20 16.5391 19.7893 16.9142 19.4142C17.2893 19.0391 17.5 18.5304 17.5 18V17" stroke="#FA4A86" stroke-width="2" stroke-linecap="round" stroke-linejoin="round"/>
<path d="M20.885 6.58511C21.2788 6.19126 21.5001 5.65709 21.5001 5.10011C21.5001 4.54312 21.2788 4.00895 20.885 3.61511C20.4912 3.22126 19.957 3 19.4 3C18.843 3 18.3088 3.22126 17.915 3.61511L9.5 12.0001V15.0001H12.5L20.885 6.58511Z" stroke="#FA4A86" stroke-width="2" stroke-linecap="round" stroke-linejoin="round"/>
<path d="M16.5 5L19.5 8" stroke="#FA4A86" stroke-width="2" stroke-linecap="round" stroke-linejoin="round"/>
</svg>
