<svg width="40" height="40" viewBox="0 0 40 40" fill="none" xmlns="http://www.w3.org/2000/svg">
<path d="M37.3281 10H2.67188C6.13281 4.02344 12.5938 0 20 0C27.4063 0 33.8672 4.02344 37.3281 10Z" fill="#C50C1E"/>
<path d="M37.3281 30C33.875 35.9766 27.4063 40 20 40C12.5938 40 6.13281 35.9766 2.67188 30H37.3281Z" fill="#C50C1E"/>
<path d="M40 20C40 23.6406 39.0234 27.0547 37.3281 30H2.67188C0.976562 27.0547 0 23.6406 0 20C0 16.3594 0.976562 12.9453 2.67188 10H37.3203C39.0234 12.9453 40 16.3594 40 20Z" fill="#FEC315"/>
</svg>
