<svg width="34" height="34" viewBox="0 0 34 34" fill="none" xmlns="http://www.w3.org/2000/svg">
<path d="M19.137 21.1394H23.4435L24.12 16.765H19.137V14.374C19.137 12.557 19.7309 10.9449 21.4307 10.9449H24.1623V7.12664C23.6823 7.062 22.6679 6.91992 20.7498 6.91992C16.7447 6.91992 14.3971 9.03512 14.3971 13.8537V16.7644H10.28V21.1388H14.3971V32.5231C15.2106 32.6454 16.0368 32.7292 16.8842 32.7292C17.6503 32.7292 18.3984 32.6594 19.137 32.559V21.1394Z" fill="#63A4FF"/>
<path d="M17 1C12.7565 1 8.68687 2.68571 5.68629 5.68629C2.68571 8.68687 1 12.7565 1 17C1 21.2435 2.68571 25.3131 5.68629 28.3137C8.68687 31.3143 12.7565 33 17 33C21.2435 33 25.3131 31.3143 28.3137 28.3137C31.3143 25.3131 33 21.2435 33 17C33 12.7565 31.3143 8.68687 28.3137 5.68629C25.3131 2.68571 21.2435 1 17 1V1Z" stroke="#63A4FF" stroke-width="1.344" stroke-miterlimit="10"/>
</svg>
