<svg width="32" height="32" viewBox="0 0 32 32" fill="none" xmlns="http://www.w3.org/2000/svg">
<g clip-path="url(#clip0_173_630)">
<path d="M16 32C7.17785 32 0 24.8228 0 16C0 7.17785 7.17785 0 16 0C24.8222 0 32 7.17785 32 16C32 24.8228 24.8222 32 16 32ZM16 1.23077C7.85662 1.23077 1.23077 7.85662 1.23077 16C1.23077 24.1434 7.85662 30.7692 16 30.7692C24.1434 30.7692 30.7692 24.1434 30.7692 16C30.7692 7.85662 24.1434 1.23077 16 1.23077Z" fill="#63A4FF"/>
<path d="M11.6923 12.3076H8V23.3845H11.6923V12.3076Z" fill="#63A4FF"/>
<path d="M10.1538 11.0768C11.3434 11.0768 12.3077 10.2503 12.3077 9.23068C12.3077 8.21107 11.3434 7.38452 10.1538 7.38452C8.96431 7.38452 8 8.21107 8 9.23068C8 10.2503 8.96431 11.0768 10.1538 11.0768Z" fill="#63A4FF"/>
<path d="M20.923 12.3076H20.5975H20.5969C19.251 12.3076 18.1353 13.275 17.8972 14.5519H17.8461V12.3076H14.1538V23.3845H17.8461V18.0996V17.1587C17.8504 16.9255 17.8689 16.7101 17.8978 16.5064C18.0873 15.6879 18.8166 15.0768 19.6923 15.0768C20.712 15.0768 21.5384 15.9033 21.5384 16.923V17.267V17.9907V23.3845H25.2307V17.7735V17.267V16.6153C25.2307 14.2362 23.3021 12.3076 20.923 12.3076Z" fill="#63A4FF"/>
</g>
<defs>
<clipPath id="clip0_173_630">
<rect width="32" height="32" fill="white"/>
</clipPath>
</defs>
</svg>
