<svg width="24" height="24" viewBox="0 0 24 24" fill="none" xmlns="http://www.w3.org/2000/svg">
<path d="M8 12C8 12.2652 8.10536 12.5196 8.29289 12.7071C8.48043 12.8946 8.73478 13 9 13C9.26522 13 9.51957 12.8946 9.70711 12.7071C9.89464 12.5196 10 12.2652 10 12C10 11.7348 9.89464 11.4804 9.70711 11.2929C9.51957 11.1054 9.26522 11 9 11C8.73478 11 8.48043 11.1054 8.29289 11.2929C8.10536 11.4804 8 11.7348 8 12Z" stroke="#8C44CC" stroke-width="2" stroke-linecap="round" stroke-linejoin="round"/>
<path d="M14 12C14 12.2652 14.1054 12.5196 14.2929 12.7071C14.4804 12.8946 14.7348 13 15 13C15.2652 13 15.5196 12.8946 15.7071 12.7071C15.8946 12.5196 16 12.2652 16 12C16 11.7348 15.8946 11.4804 15.7071 11.2929C15.5196 11.1054 15.2652 11 15 11C14.7348 11 14.4804 11.1054 14.2929 11.2929C14.1054 11.4804 14 11.7348 14 12Z" stroke="#8C44CC" stroke-width="2" stroke-linecap="round" stroke-linejoin="round"/>
<path d="M15.5004 17C15.5004 18 17.0004 20 17.5004 20C19.0004 20 20.3334 18.333 21.0004 17C21.6674 15.333 21.5004 11.167 19.5004 5.5C18.0434 4.485 16.5004 4.16 15.0004 4L14.0284 5.923C12.6874 5.6915 11.3165 5.6915 9.97544 5.923L9.00044 4C7.50044 4.16 5.95744 4.485 4.50044 5.5C2.50044 11.167 2.33344 15.333 3.00044 17C3.66744 18.333 5.00044 20 6.50044 20C7.00044 20 8.50044 18 8.50044 17" stroke="#8C44CC" stroke-width="2" stroke-linecap="round" stroke-linejoin="round"/>
<path d="M7 16.5C10.5 17.5 13.5 17.5 17 16.5" stroke="#8C44CC" stroke-width="2" stroke-linecap="round" stroke-linejoin="round"/>
</svg>
