<svg width="19" height="27" viewBox="0 0 19 27" fill="none" xmlns="http://www.w3.org/2000/svg">
<path d="M4.16699 6.83333C4.16699 8.24782 4.7289 9.60438 5.72909 10.6046C6.72928 11.6048 8.08584 12.1667 9.50033 12.1667C10.9148 12.1667 12.2714 11.6048 13.2716 10.6046C14.2718 9.60438 14.8337 8.24782 14.8337 6.83333C14.8337 5.41885 14.2718 4.06229 13.2716 3.0621C12.2714 2.0619 10.9148 1.5 9.50033 1.5C8.08584 1.5 6.72928 2.0619 5.72909 3.0621C4.7289 4.06229 4.16699 5.41885 4.16699 6.83333Z" stroke="white" stroke-width="2" stroke-linecap="round" stroke-linejoin="round"/>
<path d="M1.5 25.5V22.8333C1.5 21.4188 2.0619 20.0623 3.0621 19.0621C4.06229 18.0619 5.41885 17.5 6.83333 17.5H12.1667C13.5812 17.5 14.9377 18.0619 15.9379 19.0621C16.9381 20.0623 17.5 21.4188 17.5 22.8333V25.5" stroke="white" stroke-width="2" stroke-linecap="round" stroke-linejoin="round"/>
</svg>
