<svg width="24" height="24" viewBox="0 0 24 24" fill="none" xmlns="http://www.w3.org/2000/svg">
<g clip-path="url(#clip0_212_949)">
<path d="M12 8.99985V5.41385C12 5.2161 12.0587 5.0228 12.1686 4.85839C12.2785 4.69398 12.4346 4.56584 12.6173 4.49017C12.8 4.4145 13.0011 4.3947 13.195 4.43327C13.389 4.47183 13.5671 4.56704 13.707 4.70685L20.293 11.2928C20.4805 11.4804 20.5858 11.7347 20.5858 11.9998C20.5858 12.265 20.4805 12.5193 20.293 12.7068L13.707 19.2928C13.5671 19.4327 13.389 19.5279 13.195 19.5664C13.0011 19.605 12.8 19.5852 12.6173 19.5095C12.4346 19.4339 12.2785 19.3057 12.1686 19.1413C12.0587 18.9769 12 18.7836 12 18.5858V14.9998H9V8.99985H12Z" stroke="#FA4A86" stroke-width="2" stroke-linecap="round" stroke-linejoin="round"/>
<path d="M3 9V15" stroke="#FA4A86" stroke-width="2" stroke-linecap="round" stroke-linejoin="round"/>
<path d="M6 9V15" stroke="#FA4A86" stroke-width="2" stroke-linecap="round" stroke-linejoin="round"/>
</g>
<defs>
<clipPath id="clip0_212_949">
<rect width="24" height="24" fill="white"/>
</clipPath>
</defs>
</svg>
