<svg width="38" height="38" viewBox="0 0 38 38" fill="none" xmlns="http://www.w3.org/2000/svg">
<path d="M19 38C29.4934 38 38 29.4934 38 19C38 8.50659 29.4934 0 19 0C8.50659 0 0 8.50659 0 19C0 29.4934 8.50659 38 19 38Z" fill="black"/>
<path d="M18.4039 28.2366L18.2794 28.2543L18.315 28.1721C18.3515 28.182 18.3831 28.205 18.4039 28.2366ZM8.25786 12.2568C7.79081 12.2145 7.36824 12.1367 6.84782 12.4258C6.74329 12.3458 6.47863 12.2768 6.38966 12.3413L6.42748 12.368C6.30515 12.4436 6.24065 12.2657 6.15392 12.3858L6.07163 12.5281C6.0138 12.5014 5.87814 12.5126 5.89815 12.4525C5.82254 12.5259 5.63794 12.4525 5.64461 12.6171H5.56455L2.35303 21.6111L7.79971 29.3063L7.85976 29.2863V29.3263C7.99543 29.2774 8.08217 29.144 8.24897 29.1529C8.18225 29.2151 8.26676 29.3152 8.30234 29.3619C8.34682 29.4709 8.15333 29.571 8.19337 29.6377L8.30012 29.6244C8.38463 29.5243 8.43578 29.3864 8.59814 29.402C8.64039 29.3019 8.49138 29.2841 8.44468 29.2863C8.57812 29.2196 8.80943 29.2996 8.86058 29.1707C8.80275 29.184 8.78051 29.1707 8.77829 29.1284C8.77829 29.1462 8.92952 28.866 9.00069 28.906C8.97845 28.9816 9.01181 28.9482 8.974 29.0305C9.05852 29.0661 9.103 29.0194 9.15637 28.9772C9.15727 28.9728 9.15727 28.9682 9.15637 28.9638C9.18475 28.9401 9.21826 28.9234 9.25423 28.9149C9.13636 29.0439 9.40324 28.8838 9.32762 29.0194C9.28537 29.0194 9.25201 28.966 9.20975 28.9883C9.16749 29.0105 9.30538 29.0172 9.22977 29.0706L9.15637 28.9638C9.17194 29.1195 8.95843 28.9994 9.00069 29.1862C9.29649 29.2018 9.33208 29.0083 9.56782 28.8837C9.67029 28.8682 9.7745 28.8682 9.87696 28.8837C9.86362 28.8837 9.82804 28.8949 9.8436 28.9193C10.0882 29.0239 10.0037 28.8482 10.1995 28.966C10.2273 28.9267 10.2634 28.894 10.3053 28.8701C10.3472 28.8463 10.3938 28.832 10.4419 28.8281L5.04857 21.233L8.25786 12.2479V12.2568ZM30.4849 8.92074H30.4382C30.4601 8.93443 30.4842 8.94421 30.5094 8.94965L30.4849 8.91406V8.92074ZM32.7957 25.9814C32.7424 26.0637 32.6779 26.1815 32.7668 26.2438C32.7668 26.1637 32.8202 26.1615 32.8869 26.1726C32.8691 26.1993 32.8602 26.2371 32.8335 26.2527L32.8802 26.2193L32.8691 26.2549L32.6756 26.2816C32.6555 26.273 32.6361 26.2626 32.6178 26.2505C32.6178 26.2016 32.6801 26.1326 32.6578 26.1304C32.6372 26.129 32.6166 26.1321 32.5973 26.1395C32.578 26.1469 32.5606 26.1584 32.5462 26.1732C32.5318 26.188 32.5208 26.2058 32.514 26.2253C32.5071 26.2448 32.5046 26.2655 32.5066 26.2861L32.4621 26.2994C32.4399 26.2594 32.4132 26.2171 32.3732 26.2149C32.3656 26.2066 32.3563 26.2001 32.3459 26.1959C32.3355 26.1917 32.3243 26.1898 32.3131 26.1904C32.3131 26.3261 32.1307 26.2816 32.1041 26.3483C32.1488 26.3532 32.1941 26.3494 32.2375 26.3372L32.0529 26.3617C32.0307 26.3394 32.0218 26.3217 32.1041 26.295C31.9773 26.1726 32.0173 26.3283 31.9617 26.375H31.8972L31.7971 26.3217C31.7971 26.2238 31.9395 26.2527 31.915 26.2193L31.8527 26.2394C31.9061 26.1593 32.153 26.1726 32.2864 26.0436L31.9817 26.0303C31.6214 26.1993 31.1344 26.1304 30.8452 26.3862H30.8586C30.855 26.4075 30.855 26.4293 30.8586 26.4506L30.8408 26.4284L30.7874 26.5107C30.7029 26.4306 30.565 26.4306 30.4427 26.375C30.4659 26.3876 30.4863 26.4047 30.5028 26.4253C30.5192 26.4459 30.5313 26.4697 30.5383 26.4951C30.5408 26.5188 30.5408 26.5426 30.5383 26.5663L30.4271 26.5819C30.4271 26.5441 30.4627 26.5307 30.396 26.4974C30.4382 26.5218 30.4138 26.5707 30.3737 26.5885H30.3582C30.3069 26.5728 30.257 26.5527 30.2092 26.5285L30.227 26.4818L30.2581 26.4951C30.2581 26.4951 30.2581 26.4773 30.2336 26.4662V26.4373C30.2603 26.4595 30.2937 26.4684 30.2581 26.4373C30.2581 26.424 30.2581 26.4151 30.247 26.4039L33.4852 17.3276L27.8383 9.34998C27.9096 9.36393 27.9829 9.36344 28.054 9.34854C28.125 9.33364 28.1924 9.30463 28.252 9.26324C28.274 9.26761 28.2967 9.26761 28.3187 9.26324L28.2431 9.22765L28.5033 9.19207C28.57 9.24544 28.6079 9.20986 28.6501 9.17205L28.7635 9.15871C28.8303 9.20097 28.917 9.2966 28.9281 9.20986C28.9437 9.22098 28.9637 9.19652 28.9815 9.16983L29.0326 9.18095L28.9837 9.16983C28.9948 9.15426 29.0037 9.13647 29.0126 9.12312L29.1016 9.10978H29.2039C29.2219 9.11281 29.2403 9.112 29.2579 9.1074C29.2756 9.1028 29.292 9.09451 29.3062 9.08309L29.3373 9.12312C29.3974 9.10978 29.4018 9.13647 29.3952 9.14982H29.3841C29.3841 9.16983 29.384 9.16539 29.3952 9.14982C29.6176 9.28548 29.7043 9.02305 29.9467 9.13425C29.9734 9.06085 29.9089 9.03416 29.88 9.0008L30.1024 8.96966L29.9801 9.12758C30.0419 9.08096 30.0972 9.02637 30.1447 8.96522L30.3471 8.9363C30.4271 8.98079 30.4894 9.03194 30.4761 9.10756C30.6629 9.09422 30.4071 9.0186 30.4916 8.95187H30.5072L36.1785 16.9584L32.9181 26.0926C32.8513 26.0681 32.7913 26.037 32.7913 25.9725L32.7957 25.9814ZM28.3343 9.38557C28.2743 9.3522 28.1119 9.45228 28.0341 9.50121C28.1252 9.45896 28.3588 9.44561 28.3343 9.38111V9.38557ZM30.3359 9.0008L30.2181 9.07419L30.3359 9.19875C30.4783 9.1298 30.3359 9.11868 30.3359 9.0008ZM32.669 25.928C32.5524 25.9475 32.4441 26.0009 32.3576 26.0815L32.4065 26.117C32.4955 26.0303 32.6289 26.0503 32.669 25.928ZM29.3574 9.07197H29.3285L29.3462 9.08532L29.3574 9.07197ZM28.2453 9.25212C28.2443 9.244 28.2443 9.23577 28.2453 9.22765L27.9495 9.26769C28.0492 9.25624 28.1495 9.25104 28.2498 9.25212H28.2453ZM27.9295 9.34331C27.9212 9.31865 27.9092 9.2954 27.8939 9.27436H27.8139C27.8267 9.29313 27.844 9.30843 27.8642 9.31891C27.8843 9.32938 27.9068 9.33471 27.9295 9.33441V9.34331ZM25.3229 10.0105C25.3052 9.9438 25.3785 9.91044 25.423 9.89042L25.4008 9.85928H25.363H25.3919L25.3474 9.79479C25.3184 9.80459 25.2902 9.81648 25.2629 9.83037C25.4475 9.78145 25.2029 9.97938 25.3252 10.0261L25.3229 10.0105ZM30.9453 17.6901L27.7383 26.6708C27.4245 26.713 27.1159 26.7876 26.8175 26.8932C26.6907 26.9199 26.7241 26.7931 26.6596 26.7576C26.3771 26.7776 26.3327 26.9644 26.0702 27.0378C26.1014 26.9844 26.1458 26.8376 26.0302 26.8488C26.0146 26.8977 26.0102 26.9711 25.9346 26.9511L25.9635 26.8977C25.8879 26.8354 25.8323 26.911 25.6899 26.8977C25.4403 26.947 25.216 27.0824 25.0561 27.2802C24.8337 27.2936 25.0561 27.1067 25.0094 27.0801C25.1695 27.1156 25.1117 27.0378 25.1361 26.9777C25.1555 26.964 25.1741 26.9492 25.1917 26.9333C25.18 26.9366 25.169 26.9422 25.1594 26.9499C25.1499 26.9575 25.1419 26.967 25.1361 26.9777C25.0627 27.0333 24.9693 27.0734 24.9137 26.9777C24.8153 26.9841 24.7224 27.0251 24.6513 27.0934C24.7024 27.0467 24.758 27.0934 24.7136 27.1601C24.6157 27.1334 24.3888 27.2068 24.3822 27.0667C23.8595 27.1668 23.2702 27.2179 22.6964 27.3025C22.6118 27.387 22.7742 27.3202 22.7275 27.3781C22.6029 27.4915 22.6118 27.3447 22.5051 27.4337L22.5407 27.3514C22.3739 27.3514 22.2182 27.5293 22.0669 27.6227C22.0825 27.5315 21.9246 27.5671 22.0514 27.4982C21.9758 27.5226 21.829 27.1446 21.7778 27.2335L21.9157 27.5849C21.9157 27.6227 21.8023 27.6138 21.8179 27.6383C21.74 27.576 21.6444 27.5026 21.5954 27.5093C21.5599 27.4181 21.6822 27.4226 21.7467 27.4159C21.7467 27.2602 21.5243 27.3469 21.5888 27.1935C21.4531 27.238 21.6199 27.2713 21.5443 27.3403L21.4175 27.3225L21.5198 27.3625C21.4242 27.4226 21.4064 27.5427 21.2596 27.4759L21.1395 27.645C21.1084 27.5271 21.0328 27.645 20.9571 27.6205L20.9905 27.536C20.9562 27.5445 20.9204 27.5457 20.8855 27.5396C20.8507 27.5335 20.8175 27.5201 20.7881 27.5004C20.8282 27.387 20.8793 27.516 20.8882 27.4114L20.777 27.3892C20.777 27.4581 20.7281 27.5204 20.8104 27.5538C20.7281 27.6939 20.6903 27.8095 20.4434 27.8318C20.3166 27.7295 20.5479 27.7117 20.4857 27.6094C20.2232 27.596 20.2165 27.9585 20.0653 27.9652C19.8674 27.943 19.8941 28.0497 19.7028 28.0853C19.7517 27.9964 19.556 28.0186 19.5093 27.9452L19.5738 27.8518C19.5182 27.8852 19.4581 27.8518 19.467 27.8006C19.4937 27.9074 19.2313 27.9363 19.1067 28.0053L19.1423 28.0964C19.0352 28.1602 18.9151 28.199 18.7909 28.2099H18.8243H18.7376H18.7909L18.7598 28.2232L18.4862 28.261C18.4841 28.2336 18.4841 28.2061 18.4862 28.1787C18.5352 28.221 18.6063 28.1787 18.6819 28.201C18.8799 28.092 19.0133 27.8763 19.2268 27.8918C19.2847 27.6561 19.089 27.9385 18.98 27.8718C18.9799 27.8672 18.9811 27.8627 18.9835 27.8588C18.9858 27.8548 18.9892 27.8517 18.9933 27.8496H18.9689C19.0378 27.8118 19.1535 27.7584 19.1579 27.6427C19.0378 27.6828 19.1001 27.8785 18.9355 27.8029C18.831 27.8807 18.7131 27.7184 18.6419 27.7117C18.5774 27.8073 18.5997 27.9875 18.4062 27.9786L18.4729 27.8407C18.2505 27.8674 18.3973 28.0386 18.2016 28.0631C18.2727 28.0631 18.1504 28.1943 18.2839 28.181C18.2436 28.2199 18.1941 28.248 18.1401 28.2628C18.0861 28.2775 18.0292 28.2785 17.9747 28.2655C17.9547 28.2855 17.9747 28.3033 17.9747 28.3344H17.9191L17.8279 28.2766C17.8339 28.2884 17.8356 28.302 17.8328 28.3149C17.8299 28.3279 17.8227 28.3395 17.8124 28.3478L17.6433 28.3722C17.6424 28.3195 17.6571 28.2676 17.6856 28.2232H17.7056C17.6856 28.1721 17.6945 28.1543 17.6189 28.1365C17.5788 28.2054 17.6389 28.2877 17.6189 28.3589L17.4943 28.3744C17.4298 28.3633 17.3453 28.4189 17.2163 28.3744C17.263 28.2232 17.4076 28.35 17.4276 28.2121C17.2919 28.2121 17.2697 28.3122 17.1251 28.2966C17.1251 28.2277 17.2697 28.2032 17.2474 28.1187L17.1518 28.0898C17.3742 28.052 17.0895 27.9185 17.2563 27.8674C17.1674 27.8207 17.1585 27.9986 17.0339 27.9252C17.074 27.983 17.1829 28.0831 17.0784 28.1476L16.9472 28.1231C16.8849 28.0609 17.0584 27.9541 16.9672 27.9007L16.8427 27.9674C16.8427 28.0075 16.9205 28.0208 16.8872 28.0853C16.8071 28.0497 16.7871 28.2655 16.7048 28.3411C16.6336 28.3411 16.5758 28.3411 16.5446 28.3011C16.396 28.4024 16.239 28.4909 16.0754 28.5657H16.0398C16.062 28.499 15.9686 28.4612 15.9063 28.4145C16.0331 28.3789 16.0176 28.2455 15.9975 28.1632C15.9197 28.1876 15.8863 28.3322 15.933 28.37C15.7929 28.3344 15.8552 28.4745 15.7262 28.4011C15.6461 28.3656 15.7462 28.2655 15.7129 28.2188C15.5705 28.2321 15.6973 28.3856 15.5394 28.3767C15.5394 28.3567 15.5594 28.35 15.5394 28.3277C15.4994 28.3219 15.4587 28.3319 15.4259 28.3555C15.3931 28.3792 15.3708 28.4147 15.3637 28.4545C15.2503 28.2922 15.1168 28.5057 15.1101 28.3366C14.9144 28.41 15.1524 28.4256 15.1213 28.4879C15.0501 28.5746 14.8877 28.5346 14.8366 28.5146C14.8855 28.5034 14.9255 28.4501 14.9767 28.4701L14.9189 28.3589C14.6564 28.3099 14.7965 28.6458 14.5408 28.5813C14.6564 28.5034 14.5697 28.4879 14.6186 28.3967C14.5853 28.4323 14.3962 28.4234 14.5185 28.499C14.4438 28.5007 14.3691 28.4932 14.2961 28.4768C14.2165 28.5199 14.1491 28.5827 14.1004 28.6591C13.9909 28.6563 13.885 28.6189 13.798 28.5524C13.5422 28.6725 13.2753 28.5635 13.004 28.6925H13.0262C13.0078 28.6893 12.989 28.6893 12.9706 28.6925L7.45943 20.9083L10.6109 12.0811C10.6583 12.0605 10.7094 12.0498 10.761 12.0498C10.8127 12.0498 10.8638 12.0605 10.9111 12.0811C10.86 12.0366 10.9734 11.8965 11.0602 11.9054C11.1469 11.9143 11.1291 11.9477 11.1024 11.9944L11.2069 11.9232C11.3671 12.0744 11.4872 11.9454 11.6985 11.9766V12.0255C11.7304 11.9881 11.7699 11.9578 11.8144 11.9368C11.8588 11.9157 11.9073 11.9042 11.9564 11.9032V12.001C12.1055 12.05 12.0343 11.7786 12.1966 11.8276C12.1811 11.7253 12.0765 11.6852 12.0499 11.5896C12.0988 11.6897 12.2723 11.6808 12.2167 11.6118C12.3634 11.5496 12.3212 11.6118 12.339 11.623L12.419 11.5496C12.528 11.5384 12.4724 11.6785 12.4413 11.743C12.5258 11.6185 12.6437 11.6808 12.7593 11.683L12.7215 11.7364H12.8727L12.8127 11.8142C12.8711 11.8186 12.9297 11.8095 12.984 11.7875C13.0017 11.6496 12.955 11.8009 12.8727 11.7342C12.9186 11.6902 12.975 11.6587 13.0366 11.6427C13.0981 11.6267 13.1627 11.6268 13.2242 11.643L13.1552 11.7898C13.2531 11.8476 13.1952 11.7364 13.2153 11.7097C13.3442 11.6252 13.3865 11.7097 13.471 11.7786C13.6734 11.6074 13.9447 11.9388 14.1071 11.7097L14.1405 11.7875C14.3762 11.5829 14.7076 11.7875 14.8811 11.5162C15.2347 11.7542 15.0545 11.2382 15.3793 11.4473L15.3637 11.4094C16.3245 11.3271 17.3653 11.3338 18.226 11.0758V11.1314C19.6739 11.0314 21.0572 10.7222 22.4851 10.571C22.6118 10.4998 22.514 10.3886 22.6207 10.3108C22.6697 10.3108 22.7809 10.2863 22.792 10.3552C22.7008 10.4064 22.7631 10.4598 22.7342 10.4909C22.7057 10.4961 22.678 10.5051 22.6519 10.5176C22.7008 10.5176 22.7253 10.5043 22.7342 10.4909C22.8943 10.462 23.1122 10.5131 23.2412 10.4086L23.1056 10.3352C23.1567 10.2907 23.2479 10.3019 23.2991 10.3019C23.2835 10.3486 23.3702 10.4353 23.3302 10.4642C23.5993 10.2018 23.5771 10.5265 23.8195 10.4064C23.844 10.2107 24.1398 10.0105 24.331 9.84594L24.4467 9.88152C24.3021 9.89932 24.4689 10.0172 24.2865 10.035C24.4444 10.0683 24.5734 9.96827 24.7202 9.97716C24.7292 9.99099 24.7414 10.0024 24.7558 10.0105L24.8025 9.99495C24.7761 9.98504 24.7484 9.97905 24.7202 9.97716C24.7111 9.96761 24.7042 9.95609 24.7002 9.94348C24.6961 9.93088 24.695 9.91751 24.697 9.90442C24.6989 9.89132 24.7038 9.87884 24.7113 9.86793C24.7188 9.85703 24.7287 9.84798 24.7402 9.84149C24.8314 9.85484 24.8514 9.94824 24.9627 9.9438L24.8715 10.0172C24.9471 10.0795 24.9916 9.97938 25.0516 9.95937C25.0828 10.035 25.234 10.0283 25.2206 10.1195C25.3296 10.0061 25.3874 10.0394 25.4986 9.97938L25.5476 10.0506C25.5171 10.0715 25.482 10.0844 25.4453 10.0884C25.492 10.0995 25.5476 10.1195 25.6076 10.1328L30.9453 17.6768V17.6901ZM12.5547 11.7875C12.4947 11.7564 12.4302 11.8543 12.3568 11.8298L12.3812 11.7831L12.27 11.9232C12.4013 11.9165 12.4102 11.8187 12.5369 11.7831L12.5547 11.7875ZM12.5925 11.8142L12.5569 11.9276C12.5725 11.9276 12.5992 11.9054 12.6148 11.9276C12.6392 11.8809 12.6148 11.8476 12.5925 11.812V11.8142ZM16.211 28.1387C16.1896 28.1587 16.1614 28.1698 16.1321 28.1698C16.1028 28.1698 16.0746 28.1587 16.0531 28.1387L16.0932 28.1965C16.1354 28.1743 16.2333 28.2321 16.211 28.1476V28.1387ZM16.4334 28.112L16.5291 28.0609L16.4112 28.1076H16.4334V28.112ZM16.598 28.1342V28.092L16.4757 28.1876L16.598 28.1342ZM16.7159 28.1654L16.5491 28.2232H16.6047L16.7159 28.1654ZM17.71 27.8073C17.5833 27.7917 17.6344 27.963 17.5477 27.9608C17.4988 27.9207 17.5477 27.894 17.5121 27.8674C17.4709 27.8455 17.4234 27.8389 17.3778 27.8487C17.3323 27.8584 17.2916 27.8839 17.263 27.9207C17.2876 27.9547 17.305 27.9933 17.3142 28.0342C17.3233 28.0751 17.3241 28.1175 17.3164 28.1587C17.4632 28.0964 17.5121 27.8718 17.61 28.0275L17.71 27.8073ZM17.888 27.8651C17.8613 27.8006 17.7701 27.8296 17.7612 27.8918C17.7857 27.8385 17.8479 27.8607 17.8835 27.8651H17.888ZM18.0281 27.963L17.8991 28.0186L17.9391 28.0364C17.9903 28.0364 18.0459 28.0008 18.0303 27.963H18.0281ZM18.8932 27.7228H18.8554C18.8554 27.6939 18.7709 27.6361 18.8554 27.6072C18.7798 27.5849 18.742 27.7851 18.8799 27.7228H18.8932ZM19.3558 27.556C19.3358 27.5916 19.2202 27.6005 19.2913 27.6494L19.3558 27.556ZM19.5938 27.6361L19.5071 27.5916L19.4937 27.6405L19.5938 27.6361ZM20.0875 27.5026C19.9919 27.4759 19.8874 27.685 19.8162 27.5493C19.5693 27.6583 19.9074 27.7717 19.6205 27.874C19.9096 27.9096 19.7228 27.5782 19.983 27.6249C19.8496 27.5515 20.052 27.5427 20.0875 27.5026ZM20.1654 27.7384C20.1654 27.665 20.0542 27.6739 20.0253 27.725C20.0542 27.7295 20.1254 27.8207 20.1609 27.7384H20.1654ZM20.4857 27.3425L20.4145 27.4248L20.5279 27.5315C20.6191 27.4581 20.4056 27.4871 20.4857 27.3447V27.3425ZM20.5924 27.3781C20.5657 27.3936 20.5435 27.4092 20.5679 27.4181C20.5709 27.4032 20.5778 27.3894 20.588 27.3781H20.5924ZM20.6436 27.3936V27.3492C20.6324 27.3588 20.6196 27.3663 20.6058 27.3714C20.6146 27.367 20.6302 27.3714 20.6391 27.3936H20.6436ZM21.0884 27.4648L21.0728 27.427L21.015 27.3736L21.0884 27.467V27.4648ZM21.2641 27.3492C21.1884 27.3314 21.1484 27.3603 21.1796 27.4359C21.2507 27.4226 21.1996 27.3825 21.2552 27.3492H21.2641ZM24.1553 10.1996C24.1286 10.1773 24.053 10.2463 24.0842 10.2796C24.1153 10.2396 24.1709 10.2507 24.1509 10.1996H24.1553ZM25.0071 10.1062C24.922 10.1422 24.842 10.1893 24.7692 10.2463C24.8047 10.2351 24.8559 10.2707 24.8426 10.204C24.8772 10.2077 24.9121 10.2002 24.9421 10.1826C24.9721 10.165 24.9957 10.1382 25.0094 10.1062H25.0071Z" fill="#FAFF00"/>
<path d="M16.865 14.9277L20.141 14.4829L21.4888 24.2843L18.2105 24.7291L16.865 14.9277Z" fill="black"/>
</svg>
