<svg width="290" height="201" viewBox="0 0 290 201" fill="none" xmlns="http://www.w3.org/2000/svg">
<path d="M289.207 21.1294H0.792969V200.728H289.207V21.1294Z" fill="#E6E6E6"/>
<path d="M72.9564 55.7285H20.1333V90.0635H72.9564V55.7285Z" fill="white"/>
<path d="M138.594 55.7285H85.7705V90.0635H138.594V55.7285Z" fill="white"/>
<path d="M204.23 55.7285H151.407V90.0635H204.23V55.7285Z" fill="white"/>
<path d="M269.867 55.7285H217.043V90.0635H269.867V55.7285Z" fill="white"/>
<path d="M72.9564 104.326H20.1333V138.661H72.9564V104.326Z" fill="white"/>
<path d="M138.594 104.326H85.7705V138.661H138.594V104.326Z" fill="white"/>
<path d="M204.23 104.326H151.407V138.661H204.23V104.326Z" fill="white"/>
<path d="M269.867 104.326H217.043V138.661H269.867V104.326Z" fill="white"/>
<path d="M72.9564 152.923H20.1333V187.258H72.9564V152.923Z" fill="white"/>
<path d="M138.594 152.923H85.7705V187.258H138.594V152.923Z" fill="white"/>
<path d="M204.23 152.923H151.407V187.258H204.23V152.923Z" fill="white"/>
<path d="M269.867 152.923H217.043V187.258H269.867V152.923Z" fill="white"/>
<path d="M76.3297 42.2585C80.7057 42.2585 84.2532 38.7111 84.2532 34.3351C84.2532 29.9591 80.7057 26.4116 76.3297 26.4116C71.9537 26.4116 68.4062 29.9591 68.4062 34.3351C68.4062 38.7111 71.9537 42.2585 76.3297 42.2585Z" fill="white"/>
<path d="M207.332 42.2585C211.708 42.2585 215.255 38.7111 215.255 34.3351C215.255 29.9591 211.708 26.4116 207.332 26.4116C202.956 26.4116 199.408 29.9591 199.408 34.3351C199.408 38.7111 202.956 42.2585 207.332 42.2585Z" fill="white"/>
<path d="M79.4994 0H73.1606V36.4479H79.4994V0Z" fill="#E6E6E6"/>
<path d="M210.501 0H204.162V36.4479H210.501V0Z" fill="#E6E6E6"/>
<path d="M255.4 72.8961C255.398 75.7647 254.36 78.5359 252.478 80.7006C250.595 82.8653 247.995 84.2781 245.155 84.6793C242.315 85.0806 239.425 84.4433 237.017 82.8847C234.608 81.3261 232.844 78.9508 232.046 76.1952C231.249 73.4397 231.473 70.489 232.677 67.8853C233.881 65.2816 235.984 63.1999 238.6 62.0226C241.216 60.8453 244.169 60.6515 246.916 61.4768C249.663 62.3022 252.02 64.0912 253.554 66.5152C254.762 68.4241 255.403 70.6371 255.4 72.8961Z" fill="#8C44CC"/>
<path d="M253.554 66.5146L241.796 78.2708C241.057 77.1267 236.939 71.8096 236.939 71.8096C237.467 71.2763 238.03 70.7792 238.625 70.3219L242.039 74.8741L252.177 64.7358C252.691 65.2839 253.152 65.8795 253.554 66.5146Z" fill="white"/>
<path d="M124.127 121.493C124.124 124.362 123.086 127.133 121.204 129.298C119.322 131.462 116.722 132.875 113.882 133.276C111.041 133.678 108.151 133.04 105.743 131.482C103.335 129.923 101.57 127.548 100.773 124.792C99.9758 122.037 100.2 119.086 101.404 116.482C102.608 113.879 104.711 111.797 107.327 110.62C109.942 109.442 112.895 109.249 115.643 110.074C118.39 110.899 120.747 112.688 122.281 115.112C123.489 117.021 124.129 119.234 124.127 121.493Z" fill="#8C44CC"/>
<path d="M122.281 115.112L110.522 126.869C109.783 125.724 105.666 120.407 105.666 120.407C106.194 119.874 106.757 119.377 107.351 118.92L110.766 123.472L120.904 113.333C121.418 113.882 121.879 114.477 122.281 115.112Z" fill="white"/>
<path d="M58.4904 121.493C58.4877 124.362 57.4498 127.133 55.5676 129.298C53.6854 131.463 51.0852 132.875 48.2449 133.277C45.4045 133.678 42.5147 133.041 40.1065 131.482C37.6983 129.923 35.9335 127.548 35.1363 124.792C34.339 122.037 34.563 119.086 35.767 116.482C36.971 113.879 39.0741 111.797 41.6899 110.62C44.3058 109.442 47.2586 109.249 50.0059 110.074C52.7532 110.899 55.1104 112.688 56.6443 115.112C57.8523 117.021 58.4925 119.234 58.4904 121.493Z" fill="#8C44CC"/>
<path d="M56.6445 115.112L44.8861 126.869C44.147 125.724 40.0298 120.407 40.0298 120.407C40.5574 119.874 41.1205 119.377 41.7151 118.92L45.1293 123.472L55.2676 113.333C55.7817 113.882 56.2427 114.477 56.6445 115.112Z" fill="white"/>
</svg>
