<svg width="425" height="275" viewBox="0 0 425 275" fill="none" xmlns="http://www.w3.org/2000/svg">
<path d="M387.084 273.833L374.984 237.319C374.984 237.319 388.293 250.628 388.293 261.548L385.904 236.295C385.904 236.295 392.729 245.509 392.047 259.5C391.364 273.492 387.084 273.833 387.084 273.833Z" fill="#E6E6E6"/>
<path d="M127.247 240.586L115.438 204.95C115.438 204.95 128.427 217.939 128.427 228.596L126.096 203.951C126.096 203.951 132.757 212.943 132.091 226.598C131.425 240.253 127.247 240.586 127.247 240.586Z" fill="#E6E6E6"/>
<path d="M311.559 257.03C311.58 280.472 265.085 273.261 208.165 273.31C151.245 273.359 105.454 280.65 105.434 257.208C105.413 233.766 151.891 228.627 208.811 228.578C265.731 228.529 311.539 233.588 311.559 257.03Z" fill="#E6E6E6"/>
<path d="M424.319 273.297H0.680664V274.369H424.319V273.297Z" fill="#3F3D56"/>
<path d="M271.668 225.371H264.226L260.685 196.668H271.668V225.371Z" fill="#A0616A"/>
<path d="M258.084 223.246H273.262V232.282H249.875V231.455C249.875 229.278 250.74 227.19 252.279 225.65C253.819 224.111 255.907 223.246 258.084 223.246Z" fill="#2F2E41"/>
<path d="M326.366 267.736H318.924L315.383 239.033H326.366V267.736Z" fill="#A0616A"/>
<path d="M312.782 265.609H327.96V274.646H304.573V273.819C304.573 271.642 305.437 269.553 306.977 268.014C308.517 266.474 310.605 265.609 312.782 265.609Z" fill="#2F2E41"/>
<path d="M360.69 182.464C361.205 181.84 361.576 181.111 361.778 180.328C361.981 179.545 362.009 178.727 361.861 177.932C361.713 177.137 361.392 176.384 360.921 175.726C360.451 175.069 359.842 174.522 359.137 174.125L341.854 103.719L330.803 108.474L351.36 176.55C350.772 177.778 350.655 179.179 351.03 180.488C351.406 181.797 352.248 182.922 353.398 183.651C354.548 184.38 355.926 184.662 357.27 184.443C358.614 184.225 359.831 183.521 360.69 182.464Z" fill="#A0616A"/>
<path d="M347.21 40.1727C346.594 39.5278 345.843 39.0261 345.011 38.7028C344.18 38.3795 343.287 38.2425 342.397 38.3014C341.506 38.3603 340.64 38.6137 339.858 39.0438C339.076 39.4739 338.398 40.0702 337.872 40.7907L311.12 43.8618L315.19 54.1801L339.518 49.6268C340.787 50.431 342.307 50.7418 343.79 50.5003C345.273 50.2587 346.615 49.4817 347.564 48.3163C348.512 47.151 349 45.6783 348.934 44.1774C348.869 42.6764 348.256 41.2515 347.21 40.1727Z" fill="#A0616A"/>
<path d="M303.126 175.163L314.8 262.773L329.329 259.781C329.329 259.781 327.192 195.977 334.456 188.286C341.721 180.594 325.113 167.119 325.113 167.119L303.126 175.163Z" fill="#2F2E41"/>
<path d="M307.953 151.031L302.59 159.075C302.59 159.075 261.299 141.915 261.299 169.264C261.299 196.612 258.936 215.172 258.082 216.454C257.227 217.736 267.969 221.062 273.097 220.208C273.097 220.208 279.423 176.118 278.995 173.554C278.995 173.554 319.5 193.413 327.192 191.704C334.884 189.995 336.701 183.944 337.983 180.525C339.265 177.107 337.447 149.959 337.447 149.959L311.809 142.135L307.953 151.031Z" fill="#2F2E41"/>
<path d="M308.676 102.737L307.148 100.903C307.148 100.903 290.029 62.3846 296.754 51.9908C303.479 41.5971 332.826 40.0686 333.744 40.68C334.661 41.2914 331.553 49.2293 333.693 52.8977C333.693 52.8977 310.959 57.8266 309.431 58.4379C307.902 59.0493 321.21 81.6435 321.21 81.6435L319.681 95.3999L308.676 102.737Z" fill="#CCCCCC"/>
<path d="M338.635 83.783C338.635 83.783 322.739 85.6172 322.127 85.6172C321.516 85.6172 321.21 81.6431 321.21 81.6431L307.148 100.902C307.148 100.902 300.22 156.775 302.054 155.858C303.888 154.94 337.718 160.207 338.023 157.762C338.329 155.316 337.718 143.088 338.635 142.477C339.552 141.866 354.531 103.959 354.531 103.959C354.531 103.959 353.003 96.0109 347.806 93.2596C342.609 90.5083 338.635 83.783 338.635 83.783Z" fill="#CCCCCC"/>
<path d="M349.64 98.7622L354.531 103.959C354.531 103.959 361.798 163.676 357.824 165.51C353.85 167.344 346.027 167.119 346.027 167.119L338.329 138.809L349.64 98.7622Z" fill="#CCCCCC"/>
<path d="M323.359 80.0015C331.13 80.0015 337.43 73.7019 337.43 65.9309C337.43 58.16 331.13 51.8604 323.359 51.8604C315.588 51.8604 309.289 58.16 309.289 65.9309C309.289 73.7019 315.588 80.0015 323.359 80.0015Z" fill="#A0616A"/>
<path d="M320.058 68.1267C319.868 65.2072 316.184 65.1071 313.259 65.0795C310.333 65.0518 306.835 65.1563 305.18 62.7439C304.086 61.1496 304.295 58.9363 305.198 57.227C306.102 55.5177 307.589 54.2031 309.052 52.9384C312.827 49.6732 316.719 46.434 321.252 44.3441C325.786 42.2542 331.098 41.4097 335.8 43.0874C341.575 45.1482 349.383 55.7568 350.057 61.8518C350.731 67.9467 348.295 74.1601 344.189 78.7147C340.083 83.2692 330.685 81.4316 324.771 83.0519C328.367 77.963 325.997 68.7165 320.237 66.3401L320.058 68.1267Z" fill="#2F2E41"/>
<path d="M194.655 250.131C213.31 250.131 228.433 235.008 228.433 216.353C228.433 197.698 213.31 182.575 194.655 182.575C175.999 182.575 160.876 197.698 160.876 216.353C160.876 235.008 175.999 250.131 194.655 250.131Z" fill="#8C44CC"/>
<path d="M172.097 180.175C167.415 180.175 162.834 178.819 158.908 176.27C154.982 173.72 151.878 170.087 149.974 165.811L96.3741 45.1052C94.5986 41.1068 93.6596 36.7876 93.6147 32.4129C93.5699 28.0383 94.4202 23.7007 96.1134 19.6667C97.8066 15.6328 100.307 11.9878 103.461 8.95566C106.614 5.92356 110.355 3.56848 114.452 2.03515C118.55 0.501823 122.917 -0.177344 127.287 0.0394016C131.656 0.256147 135.935 1.36422 139.861 3.29552C143.786 5.22681 147.275 7.94052 150.113 11.2698C152.952 14.5992 155.079 18.4737 156.365 22.6554L195.177 148.896C196.288 152.509 196.537 156.333 195.902 160.059C195.267 163.786 193.767 167.312 191.523 170.354C189.278 173.396 186.352 175.869 182.978 177.575C179.604 179.28 175.877 180.171 172.097 180.175Z" fill="#8C44CC"/>
</svg>
