<svg width="50" height="50" viewBox="0 0 50 50" fill="none" xmlns="http://www.w3.org/2000/svg">
<path d="M36.862 25.0001C36.8562 23.1325 36.656 21.2706 36.2648 19.4445H41.2648C41.0073 18.6828 40.6963 17.9402 40.3342 17.2223H35.6814C34.8068 14.3001 33.4501 11.5446 31.6675 9.0695C30.5286 8.59061 29.3411 8.23669 28.1259 8.01394C30.568 10.6379 32.4114 13.7607 33.5286 17.1667H26.0425V7.77783H23.9592V17.1806H16.4731C17.5926 13.7684 19.4409 10.6406 21.8898 8.01394C20.6797 8.23297 19.4969 8.58223 18.362 9.05561C16.5723 11.5204 15.2064 14.2664 14.3203 17.1806H9.63976C9.2711 17.9116 8.95547 18.6682 8.69531 19.4445H13.737C13.3457 21.2706 13.1456 23.1325 13.1398 25.0001C13.1436 27.0428 13.3765 29.0787 13.8342 31.0695H8.91753C9.20487 31.848 9.54836 32.6046 9.94531 33.3334H14.4314C15.2817 35.9942 16.5423 38.5059 18.1675 40.7778C19.3314 41.277 20.5472 41.645 21.7925 41.8751C19.5258 39.4025 17.7825 36.497 16.6675 33.3334H23.9731V42.1389H26.0564V33.3334H33.3342C32.2155 36.4983 30.4674 39.404 28.1953 41.8751C29.4465 41.6371 30.667 41.2597 31.8342 40.7501C33.4569 38.4867 34.7174 35.9845 35.5703 33.3334H40.0148C40.4099 32.6181 40.7534 31.8755 41.0425 31.1112H36.112C36.5915 29.1089 36.8431 27.0588 36.862 25.0001V25.0001ZM23.9592 31.0695H15.987C15.0092 27.2471 14.9663 23.2453 15.862 19.4028H23.9592V31.0695ZM34.0148 31.0695H26.0425V19.4445H34.1398C34.5387 21.2691 34.7344 23.1323 34.7231 25.0001C34.7344 27.0445 34.4965 29.0826 34.0148 31.0695V31.0695Z" fill="#310B5E"/>
<path d="M24.9996 2.77783C20.6044 2.77783 16.308 4.08114 12.6536 6.52295C8.99914 8.96476 6.15087 12.4354 4.46892 16.496C2.78697 20.5566 2.3469 25.0247 3.20435 29.3354C4.0618 33.6461 6.17826 37.6057 9.28609 40.7135C12.3939 43.8214 16.3535 45.9378 20.6642 46.7953C24.9749 47.6527 29.4431 47.2127 33.5037 45.5307C37.5642 43.8488 41.0349 41.0005 43.4767 37.3461C45.9185 33.6916 47.2218 29.3952 47.2218 25.0001C47.2218 19.1064 44.8805 13.454 40.7131 9.28657C36.5456 5.1191 30.8933 2.77783 24.9996 2.77783V2.77783ZM24.9996 44.4445C21.1538 44.4445 17.3944 43.3041 14.1968 41.1675C10.9992 39.0309 8.50696 35.9941 7.03525 32.4411C5.56355 28.8881 5.17848 24.9785 5.92875 21.2066C6.67902 17.4348 8.53092 13.9701 11.2503 11.2508C13.9696 8.5314 17.4343 6.6795 21.2062 5.92923C24.978 5.17896 28.8876 5.56403 32.4406 7.03573C35.9937 8.50743 39.0305 10.9997 41.167 14.1973C43.3036 17.3949 44.444 21.1543 44.444 25.0001C44.444 30.157 42.3954 35.1028 38.7489 38.7494C35.1023 42.3959 30.1566 44.4445 24.9996 44.4445Z" fill="#310B5E"/>
</svg>
