<svg width="21" height="20" viewBox="0 0 21 20" fill="none" xmlns="http://www.w3.org/2000/svg">
<path d="M10.2483 0C8.90245 0 7.5698 0.265079 6.32643 0.780103C5.08305 1.29513 3.95329 2.05001 3.00165 3.00165C1.07973 4.92357 0 7.53026 0 10.2483C0 14.778 2.94125 18.6211 7.00982 19.9841C7.52223 20.0661 7.6862 19.7484 7.6862 19.4717V17.7398C4.84743 18.3547 4.24278 16.3665 4.24278 16.3665C3.77136 15.1777 3.10523 14.86 3.10523 14.86C2.17263 14.2246 3.17696 14.2451 3.17696 14.2451C4.20179 14.3168 4.74495 15.3007 4.74495 15.3007C5.63655 16.8584 7.14304 16.3972 7.7272 16.1513C7.81943 15.4851 8.08589 15.0342 8.37284 14.778C6.09772 14.5218 3.70987 13.6404 3.70987 9.73586C3.70987 8.5983 4.09931 7.6862 4.76545 6.95858C4.66296 6.70237 4.30427 5.63655 4.86793 4.25303C4.86793 4.25303 5.72878 3.97633 7.6862 5.29836C8.49582 5.07289 9.37717 4.96016 10.2483 4.96016C11.1194 4.96016 12.0007 5.07289 12.8103 5.29836C14.7678 3.97633 15.6286 4.25303 15.6286 4.25303C16.1923 5.63655 15.8336 6.70237 15.7311 6.95858C16.3972 7.6862 16.7867 8.5983 16.7867 9.73586C16.7867 13.6507 14.3886 14.5116 12.1032 14.7678C12.4721 15.0855 12.8103 15.7106 12.8103 16.6637V19.4717C12.8103 19.7484 12.9743 20.0764 13.497 19.9841C17.5655 18.6109 20.4965 14.778 20.4965 10.2483C20.4965 8.90245 20.2315 7.5698 19.7164 6.32643C19.2014 5.08305 18.4465 3.95329 17.4949 3.00165C16.5433 2.05001 15.4135 1.29513 14.1701 0.780103C12.9267 0.265079 11.5941 0 10.2483 0Z" fill="black"/>
</svg>
